P1
# CREATOR: GIMP PNM Filter Version 1.1
106 17
0000000000000000000000000000000000000000000000000000000000000000000000
0000000000000000000000000000000000000100010011001000000000000000000000
0000000000000000000000000000000000000000000000000000000000000100000000
0001001010101010000000111100000000000000000000000000000000111011101110
0111010001110111000000000001000000000001001110110010000000000110000000
0000000000000000000000001000100010100001010000010001000000000011100000
0000010010101010100000000000100000000000010000000000000000001110111011
1001110100000101110000000000111000000000011010101010100000000000110000
0000000111111000000000000010100010000000010100000101000000000000111000
0000000000000000000000000000000011111000000000001000000000000011101110
0000011101010001011100000000011111000000000000000000000000000000000000
0010000000000010000000000000000000000000000000000000000000000011111111
1110000000000000000000000000000000000010000000000001000000000000000000
0000000000000000000000000011111111111111100000000000000000000000000000
0000100000000000010000000000000000000000000000000000000000000000111111
1111100000000000000000000000000000000000110000000000011111000000000000
0000000000000000000000000000000001111100000000000000000000000000000000
0000000111100000000000010000000000000000000000000000000000000000000000
1110000000000000000000000000000000000000000000110000000000001111000000
0000000000000000000000000000000000001110000000000000000000000000000000
0000000000000100000000000000010000000000000000000000000000000000000000
0011100000000000000000000000000000000000000000000011110000000000000000
0000000000000000000000000000000000000001000000000000000000000000000000
0000000000000000011000000000000000000000000000000000000000000000000000
0000010000000000000000000000000000000000000000000000000000000000000000
0000000000000000000000000000000000000000000000000000